# xmcd
#
# Track frame offsets:
#  150
#  37080
#  62840
#  98288
#  125143
#  165806
#  200669
#  234051
#  260209
#
# Disc length: 4503 seconds
#
# Revision: 1
# Processed by: cddbd v1.5.1PL0 Copyright (c) Steve Scherf et al.
# Submitted via: Collectorz.com_Music_Collector 6.9
#
DISCID=74119509
DTITLE=The Chickenhawks - Big Luther Kent - Deep in the Heart
DYEAR=2004
DGENRE=Blues
TTITLE0=Big Legged Woman
TTITLE1=Teeny Weeny Bit
TTITLE2=Dangerous Mood
TTITLE3=Sick And Tired
TTITLE4=That Did It
TTITLE5=Let's Straighten It Out
TTITLE6=Nuthin' You Can Do
TTITLE7=Let The Good Times Roll
TTITLE8=99 Women
EXTD=
EXTT0=
EXTT1=
EXTT2=
EXTT3=
EXTT4=
EXTT5=
EXTT6=
EXTT7=
EXTT8=
PLAYORDER=
